<?xml version="1.0" encoding="utf-8"?>
<!-- Generator: Adobe Illustrator 16.0.0, SVG Export Plug-In . SVG Version: 6.00 Build 0)  -->
<!DOCTYPE svg PUBLIC "-//W3C//DTD SVG 1.1//EN" "http://www.w3.org/Graphics/SVG/1.1/DTD/svg11.dtd">
<svg version="1.1" id="Layer_1" xmlns="http://www.w3.org/2000/svg" xmlns:xlink="http://www.w3.org/1999/xlink" x="0px" y="0px"
	 width="400.479px" height="296.985px" viewBox="0 0 400.479 296.985" enable-background="new 0 0 400.479 296.985"
	 xml:space="preserve">
<g>
	<path fill-rule="evenodd" clip-rule="evenodd" fill="#FFFFFF" d="M132.249,71.467c-1.455-3.917-0.474-9.01,1.299-12.771
		c0.783-1.667-0.03-4.237,0.744-6.293c1.233-3.272,2.2-6.66,3.837-9.767c5.104-9.684,16.853-16.076,26.393-20.651
		c23.723-11.363,51.469-13.496,77.078-9.247c11.285,1.873,25.215,6.071,32.749,15.337c7.755,9.538,10.719,20.764,12.768,32.592
		c2.103,12.132,0.345,23.443,0.441,35.527c0.005,1.233,1.087,0.791,1.087,3.782c0,3.987,0,7.974,0,11.961c0,3.031,0,6.061,0,9.092
		c0,1.369-1.223,9.201,1.347,4.779c6.729,10.708,10.096,23.206,14.827,34.822c2.686,6.594,6.117,12.685,9.63,18.861
		c2.282,4.012,8.034,7.626,2.922,11.192c11.196,0.191,23.06-0.909,34.155,0.477c-0.272,3.335-43.873,1.322-48.838,2.076
		c3.566,9.324,6.076,19.207,7.04,29.113c0.995,10.238,3.892,20.73,2.121,30.828c-1.236,7.049-11.024,17.656-18.358,18.806
		c-9.303,1.458-24.351-1.493-25.35-13.027c-0.831-9.589,3.409-18.453,0.903-27.773c-3.045-11.327-8.395-19.564-15.629-28.58
		c-2.314-2.883-4.825-7.95-8.669-8.939c-4.786-1.231-11.132-0.243-15.995,0.048c-10.536,0.621-21.351-1.346-31.859-0.647
		c-6.962,0.463-14.566-2.333-19.497,3.367c-6.487,7.5-12.175,17.241-16.541,26.105c-4.935,10.02-5.929,19.378-5.6,30.338
		c0.139,4.59,1.291,10.257,0.642,14.764c-0.621,4.31-3.975,7.283-6.509,10.459c-4.175,5.229-18.152,4.479-23.475,2.215
		c-9.209-3.919-11.476-15.345-12.163-24.341c-1.711-22.389,9.321-41.187,14.106-62.402c-11.638,0.75-22.808-0.926-34.48,0.268
		c-6.082,0.622-11.738-0.225-17.689-1.456c-4.841-1.001-10.308,0.332-15.22,0.574c0.885-4.277,4.352-2.618,8.217-2.677
		c3.928-0.06,7.854-0.287,11.784-0.223c3.797,0.062,7.591-0.101,11.387-0.14c4.271-0.043,4.981-3.833,7.06-7.29
		c4.096-6.808,8.284-13.563,12.465-20.319c3.128-5.055,6.039-12.135,10.256-16.201c10.181-9.816,7.838-25.243,8.332-37.662
		c0.3-7.539,0.622-15.292,1.312-22.8C131.579,82.352,129.976,74.226,132.249,71.467C131.946,70.65,131.706,72.126,132.249,71.467z
		 M271.998,261.456c-2.417-1.007,0.209,2.176,0.928,2.502c0.996,1.752,2.709,2.654,4.663,2.876c5.346,0.601,9.94,3.056,15.569,2.232
		c4.87-0.712,8.802-6.394,12.005-9.734c4.175-4.354,5.272-9.079,5.201-15.106c-0.225-19.023-3.283-47.586-16.676-62.35
		c-6.477-7.139-7.312-21.692-7.819-30.754c-0.663-11.826,1.668-23.527,1.188-35.351c-0.131-3.216,2.125-13.606-1.018-15.595
		c-1.446-0.915-0.24-9.899-0.03-11.889c1.257-11.925,0.383-23.254-1.906-34.995c-4.619-23.695-21.972-35.141-44.832-38.101
		c-18.424-2.386-38.722-3.395-57.009,1.746c-10.751,3.022-23.019,7.227-31.56,14.768c-3.628,3.204-6.818,5.025-9.598,9.142
		c-2.911,4.311-3.631,8.91-5.357,13.765c-3.011,8.466-2.237,18.408-2.738,27.255c-0.333,5.863-0.993,11.966-0.738,17.833
		c0.128,2.961-2.58,10.624,0.998,12.445c-0.585,0-1.169,0-1.754,0c0.087,2.317-0.426,13.552,1.525,13.552
		c-0.014,0.549-0.159,1.058-0.434,1.527c-1.713,1.129,0.482,1.551,0.168,3.063c-0.522,2.533,1.915,10.759-1.893,11.905
		c-2.271-1.504-0.188-5.502-0.866-7.695c-4.974,9.37-10.991,17.908-16.215,27.088c-4.692,8.246-14.493,18.623-15.654,28.136
		c8.834,0.261,15.826-0.018,22.856-5.76c3.225-2.634,5.411-5.237,7.673-8.66c2.705-4.09,0.379-7.943,1.379-12.276
		c2.864,0.859,2.211,4.429,2.216,6.945c0.006,3.133,0.996,8.572,0.4,11.36c-0.647,3.018-2.49,6.393-0.362,8.831
		c1.64,1.879-2.807,4.366-3.551,6.862c-5.466,18.309-14.425,35.743-13.529,55.251c0.342,7.447,1.008,16.872,6.565,22.514
		c6.267,6.364,17.102,5.221,24.647,2.404c7.759-2.896,7.933-11.84,7.743-18.58c-0.279-9.905-1.704-18.969,1.712-28.544
		c5.006-14.031,14.632-30.992,26.03-40.802c12.452-10.718,33.665-16.389,49.195-9.772c12.789,5.449,29.042,22.041,34.23,34.922
		c2.773,6.885,5.132,13.763,6.61,21.069c0.706,3.49,1.642,10.211-0.249,13.473c-1.116,1.924,0.896,6.796-1.746,8.821
		C271.616,258.433,271.295,260.182,271.998,261.456C271.735,261.347,271.312,260.212,271.998,261.456z M289.006,128.704
		c-1.491,0.269-1.694,16.821-1.657,19.151c0.139,8.742,2.876,16.702,3.783,25.229c0.544,5.098,7.028,10.661,11.177,12.403
		c3.89,1.638,10.555,1.629,15.065,2.106c-6.687-9.357-12.436-20.561-16.093-31.468c-1.95-5.812-4.105-11.514-6.617-17.11
		C292.945,135.183,289.865,131.548,289.006,128.704C288.846,128.732,289.161,129.218,289.006,128.704z M183.569,190.795
		c19.618,0.839,39.859,1.999,59.458,0.837c-1.906-2.593-4.719-3.97-7.481-5.433c-2.174-1.15-2.982-3.625-5.217-4.557
		c-3.473-1.447-7.176-2.279-10.926-2.536c-1.258-0.086-9.393-0.728-10.019,0.004c-3.086,3.609-11.212-0.009-14.126,4.642
		c-0.709,1.131-4.207,1.65-5.109,2C188.602,186.353,183.868,189.12,183.569,190.795C187.346,190.957,183.804,189.48,183.569,190.795
		z M117.832,189.034c0.444,1.333,9.843,0.519,11.521,0.519c0.605-3.387,2.021-7.946-0.139-11.136
		C127.078,183.395,122.063,185.911,117.832,189.034C117.889,189.207,120.916,186.757,117.832,189.034z M312.343,190.068
		c-4.407-1.062-7.841-0.449-12.036-2.455C300.804,193.228,308.743,190.582,312.343,190.068
		C310.547,189.636,309.741,190.439,312.343,190.068z"/>
	<path fill-rule="evenodd" clip-rule="evenodd" fill="#FFFFFF" d="M16.605,190.872c0.13,2.943-10.253,2.62-11.766,1.568
		C2.793,191.016,15.283,190.651,16.605,190.872C16.666,192.228,15.841,190.744,16.605,190.872z"/>
	<path fill-rule="evenodd" clip-rule="evenodd" fill="#FFFFFF" d="M52.399,190.44C52.18,195.563,38.556,190.44,52.399,190.44
		C52.304,192.673,50.582,190.44,52.399,190.44z"/>
	<path fill-rule="evenodd" clip-rule="evenodd" fill="#FFFFFF" d="M367.145,192.466c-2.742,0-6.648,0.767-9.051-0.657
		C359.213,190.74,369.077,189.368,367.145,192.466C364.497,192.466,367.287,192.238,367.145,192.466z"/>
	<path fill-rule="evenodd" clip-rule="evenodd" fill="#FFFFFF" d="M385.511,191.884c1.093-1.02,2.328-1.252,3.707-0.697
		C387.492,193.687,387.839,192.122,385.511,191.884C386.76,190.545,386.674,192.003,385.511,191.884z"/>
	<path fill-rule="evenodd" clip-rule="evenodd" fill="#FFFFFF" d="M32.779,192.505c-0.939-0.657-0.927-1.305,0.036-1.943
		C33.945,191.132,33.933,191.78,32.779,192.505C32.447,192.065,33.176,192.026,32.779,192.505z"/>
	<path fill-rule="evenodd" clip-rule="evenodd" fill="#FFFFFF" d="M313.064,237.769c0.522,1.05,0.507,1.573-0.048,1.568
		C312.497,238.32,312.513,237.797,313.064,237.769C313.064,238.291,313.049,237.77,313.064,237.769z"/>
	<path fill-rule="evenodd" clip-rule="evenodd" fill="#FFFFFF" d="M375.003,191.675C374.237,192.518,374.49,190.644,375.003,191.675
		C374.905,191.783,374.952,191.573,375.003,191.675z"/>
	<path fill-rule="evenodd" clip-rule="evenodd" fill="#FFFFFF" d="M273.586,242.166c0-0.19-0.076-4.207,0.101-4.212
		C273.687,238.153,273.763,242.15,273.586,242.166C273.586,240.763,273.619,242.163,273.586,242.166z"/>
</g>
</svg>
